<?xml version="1.0" standalone="no"?>
<!DOCTYPE svg PUBLIC "-//W3C//DTD SVG 1.1//EN" "http://www.w3.org/Graphics/SVG/1.1/DTD/svg11.dtd" >
<svg xmlns="http://www.w3.org/2000/svg">
<metadata></metadata>
<defs>
<font id="ristretto_pro_rgregular" horiz-adv-x="321" >
<font-face units-per-em="1000" ascent="750" descent="-250" />
<missing-glyph horiz-adv-x="155" />
<glyph horiz-adv-x="1000" />
<glyph horiz-adv-x="1000" />
<glyph unicode="&#xd;" horiz-adv-x="1000" />
<glyph unicode=" "  horiz-adv-x="155" />
<glyph unicode="&#x09;" horiz-adv-x="155" />
<glyph unicode="&#xa0;" horiz-adv-x="155" />
<glyph unicode="!" horiz-adv-x="151" d="M47 0v93h57v-93h-57zM47 184v516h57v-516h-57z" />
<glyph unicode="&#x22;" horiz-adv-x="246" d="M45 550v175h46v-175h-46zM154 550v175h46v-175h-46z" />
<glyph unicode="#" horiz-adv-x="363" d="M37 150v48h43v304h-43v48h43v150h57v-150h96v150h57v-150h42v-48h-42v-304h42v-48h-42v-150h-57v150h-96v-150h-57v150h-43zM137 198h96v304h-96v-304z" />
<glyph unicode="$" d="M39 110v90h57v-90q0 -30 18.5 -48t45.5 -18q28 0 46.5 17.5t18.5 48.5v112q0 31 -19 50.5t-46 31t-54.5 25t-46.5 41.5t-19 71v100q0 46 26.5 75t68.5 35v99h50v-99q42 -6 69 -35t27 -75v-91h-57v91q0 30 -18.5 47.5t-45.5 17.5t-45 -17.5t-18 -47.5v-100q0 -31 19 -51 t46.5 -31.5t54.5 -25t46 -41t19 -70.5v-112q0 -47 -27 -76.5t-70 -34.5v-99h-50v99q-42 5 -69 34.5t-27 76.5z" />
<glyph unicode="%" horiz-adv-x="501" d="M45 487v125q0 42 26 67t65 25q40 0 66.5 -25t26.5 -67v-125q0 -43 -27 -67t-66 -24q-40 0 -65.5 24.5t-25.5 66.5zM86 487q0 -25 14 -39t36 -14t37 14t15 39v125q0 25 -15 39.5t-37 14.5t-36 -14.5t-14 -39.5v-125zM89 0l277 700h46l-277 -700h-46zM272 87v125 q0 42 26 67t66 25q39 0 65.5 -25t26.5 -67v-125q0 -42 -26.5 -66.5t-65.5 -24.5q-40 0 -66 24.5t-26 66.5zM313 87q0 -25 14.5 -39t36.5 -14q21 0 36.5 14.5t15.5 38.5v125q0 24 -15.5 39t-36.5 15q-22 0 -36.5 -14.5t-14.5 -39.5v-125z" />
<glyph unicode="&#x26;" d="M39 110v133q0 73 61 101q-61 28 -61 102v118q0 53 34.5 84t86.5 31t87 -31t35 -84v-64h-57v64q0 31 -18.5 49t-46.5 18q-27 0 -45.5 -18t-18.5 -49v-130q0 -30 18.5 -48t45.5 -18h65v41h57v-299q0 -53 -35 -83.5t-87 -30.5t-86.5 30.5t-34.5 83.5zM96 110q0 -30 18.5 -48 t45.5 -18q28 0 46.5 17.5t18.5 48.5v210h-65q-27 0 -45.5 -18t-18.5 -49v-143z" />
<glyph unicode="'" horiz-adv-x="136" d="M45 550v175h46v-175h-46z" />
<glyph unicode="(" horiz-adv-x="193" d="M39 10v629q0 53 34.5 84t86.5 31h10v-48h-10q-27 0 -45.5 -18t-18.5 -49v-629q0 -30 18.5 -48t45.5 -18h10v-48h-10q-52 0 -86.5 30.5t-34.5 83.5z" />
<glyph unicode=")" horiz-adv-x="193" d="M23 -56h10q27 0 45.5 18t18.5 49v629q0 30 -18.5 48t-45.5 18h-10v48h10q52 0 86.5 -30.5t34.5 -83.5v-629q0 -53 -34.5 -84t-86.5 -31h-10v48z" />
<glyph unicode="*" horiz-adv-x="338" d="M31 548v48h95l-48 84l42 24l48 -85l48 85l42 -24l-49 -84h98v-48h-98l48 -83l-41 -24l-48 83l-48 -83l-41 24l48 83h-96z" />
<glyph unicode="+" horiz-adv-x="338" d="M31 287v48h113v119h48v-119h115v-48h-115v-119h-48v119h-113z" />
<glyph unicode="," horiz-adv-x="146" d="M17 -122q28 65 28 122v93h55v-93q0 -25 -9 -55.5t-17 -48.5l-9 -18h-48z" />
<glyph unicode="-" horiz-adv-x="216" d="M31 251v47h155v-47h-155z" />
<glyph unicode="." horiz-adv-x="146" d="M45 0v93h55v-93h-55z" />
<glyph unicode="/" horiz-adv-x="296" d="M31 -100l177 846h57l-177 -846h-57z" />
<glyph unicode="0" d="M39 110v454q0 53 34.5 84t86.5 31t87 -31t35 -84v-454q0 -53 -35 -83.5t-87 -30.5t-86.5 30.5t-34.5 83.5zM96 110q0 -30 18.5 -48t45.5 -18q28 0 46.5 17.5t18.5 48.5v454q0 31 -18.5 49t-46.5 18q-27 0 -45.5 -18t-18.5 -49v-454z" />
<glyph unicode="1" horiz-adv-x="220" d="M23 564v55l93 56h57v-675h-57v620z" />
<glyph unicode="2" horiz-adv-x="317" d="M37 494v74q0 51 34 81t85 30q52 0 87 -31t35 -84v-149q0 -35 -13.5 -65t-33.5 -50t-43.5 -40.5t-43.5 -38t-33.5 -42t-13.5 -52.5v-79h181v-48h-238v127q0 42 18.5 76t45 57t53.5 45t45.5 49.5t18.5 60.5v149q0 31 -18.5 49t-46.5 18q-26 0 -44 -17t-18 -46v-74h-57z" />
<glyph unicode="3" horiz-adv-x="317" d="M37 494v74q0 51 34 81t85 30q52 0 87 -31t35 -84v-108q0 -38 -18.5 -64.5t-50.5 -38.5q32 -12 51.5 -39t19.5 -66v-137q0 -53 -35 -84t-87 -31q-51 0 -85 30t-34 82v73h57v-73q0 -29 18 -46.5t44 -17.5q28 0 46.5 18t18.5 49v151q0 31 -18.5 48.5t-46.5 17.5h-49v48h47 q28 0 46.5 17.5t18.5 48.5v122q0 31 -18.5 49t-46.5 18q-26 0 -44 -17t-18 -46v-74h-57z" />
<glyph unicode="4" horiz-adv-x="315" d="M23 134v48l156 493h87v-493h26v-48h-26v-134h-55v134h-188zM76 182h135v429h-2z" />
<glyph unicode="5" d="M39 110v71h57v-71q0 -30 18.5 -48t45.5 -18q28 0 46.5 17.5t18.5 48.5v224q0 23 -14 37t-35 14q-32 0 -56 -22.5t-24 -48.5h-57v361h238v-48h-181v-250q37 56 103 56q35 0 59 -23.5t24 -62.5v-237q0 -53 -35 -83.5t-87 -30.5t-86.5 30.5t-34.5 83.5z" />
<glyph unicode="6" d="M39 110v454q0 53 35 84t87 31q51 0 85 -30t34 -82v-73h-57v73q0 29 -18 46.5t-44 17.5q-28 0 -46.5 -18t-18.5 -49v-212q37 56 103 56q35 0 59 -23.5t24 -62.5v-212q0 -53 -35 -83.5t-87 -30.5t-86.5 30.5t-34.5 83.5zM96 110q0 -30 18.5 -48t45.5 -18q28 0 46.5 17.5 t18.5 48.5v199q0 23 -14 37t-35 14q-34 0 -57 -23t-23 -61v-166z" />
<glyph unicode="7" horiz-adv-x="300" d="M31 627v48h238v-31l-133 -644h-59l131 627h-177z" />
<glyph unicode="8" d="M39 110v133q0 73 61 101q-61 28 -61 102v118q0 53 34.5 84t86.5 31t87 -31t35 -84v-118q0 -74 -62 -102q62 -28 62 -101v-133q0 -53 -35 -83.5t-87 -30.5t-86.5 30.5t-34.5 83.5zM96 110q0 -30 18.5 -48t45.5 -18q28 0 46.5 17.5t18.5 48.5v143q0 31 -18.5 49t-46.5 18 q-27 0 -45.5 -18t-18.5 -49v-143zM96 434q0 -30 18.5 -48t45.5 -18q28 0 46.5 17.5t18.5 48.5v130q0 31 -18.5 49t-46.5 18q-27 0 -45.5 -18t-18.5 -49v-130z" />
<glyph unicode="9" d="M39 109v72h57v-72q0 -30 18 -47.5t45 -17.5q28 0 47 18.5t19 49.5v210q-35 -55 -102 -55q-36 0 -60 23t-24 62v213q0 53 35 83.5t87 30.5t86.5 -30.5t34.5 -83.5v-453q0 -53 -35 -84.5t-88 -31.5q-51 0 -85.5 30.5t-34.5 82.5zM96 365q0 -23 14 -36.5t35 -13.5 q35 0 57.5 22.5t22.5 60.5v167q0 31 -18 48.5t-46 17.5t-46.5 -17.5t-18.5 -48.5v-200z" />
<glyph unicode=":" horiz-adv-x="146" d="M45 0v93h55v-93h-55zM45 406v94h55v-94h-55z" />
<glyph unicode=";" horiz-adv-x="146" d="M17 -122q28 65 28 122v93h55v-93q0 -25 -9 -55.5t-17 -48.5l-9 -18h-48zM45 406v94h55v-94h-55z" />
<glyph unicode="&#x3c;" horiz-adv-x="409" d="M45 262v75l319 104v-59l-267 -81v-2l267 -82v-59z" />
<glyph unicode="=" horiz-adv-x="338" d="M31 200v48h276v-48h-276zM31 352v48h276v-48h-276z" />
<glyph unicode="&#x3e;" horiz-adv-x="409" d="M45 159v59l267 81v2l-267 82v59l319 -104v-75z" />
<glyph unicode="?" horiz-adv-x="317" d="M37 519v74q0 51 34 81t85 30q52 0 87 -31t35 -84v-104q0 -40 -9.5 -66t-23.5 -39t-28 -25t-23.5 -33t-9.5 -54v-84h-57v84q0 40 9.5 65.5t23.5 38.5t28 25t23.5 33.5t9.5 54.5v104q0 31 -18.5 49t-46.5 18q-26 0 -44 -17t-18 -46v-74h-57zM127 0v93h57v-93h-57z" />
<glyph unicode="@" horiz-adv-x="707" d="M45 100v299q0 141 87.5 223t219.5 82t221 -82t89 -223v-399h-244v52q-37 -56 -103 -56q-35 0 -59 23t-24 63v308q0 53 35 83.5t87 30.5q34 0 64.5 -9t43.5 -19l13 -9v-419h130v351q0 117 -72.5 187t-180.5 70q-107 0 -178.5 -70t-71.5 -187v-299q0 -118 71.5 -187 t178.5 -69v-48q-132 0 -219.5 81t-87.5 223zM289 95q0 -24 14 -37.5t35 -13.5q34 0 57 22.5t23 60.5v310q-25 19 -64 19q-28 0 -46.5 -17.5t-18.5 -48.5v-295z" />
<glyph unicode="A" horiz-adv-x="315" d="M16 0l104 700h75l104 -700h-58l-27 188h-114l-26 -188h-58zM104 236h107l-52 395h-2z" />
<glyph unicode="B" horiz-adv-x="323" d="M47 0v700h115q52 0 87 -31t35 -84v-119q0 -38 -18.5 -64.5t-50.5 -38.5q32 -12 51.5 -39t19.5 -66v-143q0 -53 -35 -84t-87 -31h-117zM104 48h60q28 0 46.5 18t18.5 49v157q0 31 -18.5 48.5t-46.5 17.5h-60v-290zM104 386h58q28 0 46.5 17.5t18.5 48.5v133q0 31 -18.5 49 t-46.5 18h-58v-266z" />
<glyph unicode="C" horiz-adv-x="315" d="M39 107v485q0 52 33.5 82t84.5 30t85 -30t34 -82v-92h-57v92q0 29 -18 46.5t-44 17.5t-43.5 -17.5t-17.5 -46.5v-485q0 -29 17.5 -46t43.5 -17t44 17t18 46v93h57v-93q0 -51 -34 -81t-85 -30t-84.5 29.5t-33.5 81.5z" />
<glyph unicode="D" horiz-adv-x="326" d="M47 0v700h118q52 0 87 -31t35 -84v-471q0 -53 -35 -83.5t-87 -30.5h-118zM104 48h61q28 0 46.5 17.5t18.5 48.5v471q0 31 -18.5 49t-46.5 18h-61v-604z" />
<glyph unicode="E" horiz-adv-x="308" d="M47 0v700h222v-48h-165v-269h145v-48h-145v-287h165v-48h-222z" />
<glyph unicode="F" horiz-adv-x="308" d="M47 0v700h222v-48h-165v-269h145v-48h-145v-335h-57z" />
<glyph unicode="G" horiz-adv-x="315" d="M39 107v485q0 52 33.5 82t84.5 30t85 -30t34 -82v-92h-57v92q0 29 -18 46.5t-44 17.5t-43.5 -17.5t-17.5 -46.5v-485q0 -29 17.5 -46t43.5 -17t44 17t18 46v220h-61v48h118v-268q0 -51 -34 -81t-85 -30t-84.5 29.5t-33.5 81.5z" />
<glyph unicode="H" horiz-adv-x="338" d="M47 0v700h57v-317h130v317h57v-700h-57v335h-130v-335h-57z" />
<glyph unicode="I" horiz-adv-x="151" d="M47 0v700h57v-700h-57z" />
<glyph unicode="J" horiz-adv-x="315" d="M39 108v92h57v-92q0 -29 18 -46.5t44 -17.5t43.5 17.5t17.5 46.5v592h57v-592q0 -52 -33.5 -82t-84.5 -30t-85 30t-34 82z" />
<glyph unicode="K" horiz-adv-x="320" d="M47 0v700h57v-317h37l99 317h59l-113 -341l117 -359h-60l-101 335h-38v-335h-57z" />
<glyph unicode="L" horiz-adv-x="286" d="M47 0v700h57v-652h160v-48h-217z" />
<glyph unicode="M" horiz-adv-x="473" d="M47 0v700h85l102 -613h2l105 613h84v-700h-55v599h-2l-99 -599h-66l-99 599h-2v-599h-55z" />
<glyph unicode="N" horiz-adv-x="339" d="M47 0v700h52l136 -527h2v527h55v-700h-52l-136 527h-2v-527h-55z" />
<glyph unicode="O" d="M39 110v479q0 53 34.5 84t86.5 31t87 -31t35 -84v-479q0 -53 -35 -83.5t-87 -30.5t-86.5 30.5t-34.5 83.5zM96 110q0 -30 18.5 -48t45.5 -18q28 0 46.5 17.5t18.5 48.5v479q0 31 -18.5 49t-46.5 18q-27 0 -45.5 -18t-18.5 -49v-479z" />
<glyph unicode="P" horiz-adv-x="323" d="M47 0v700h115q52 0 87 -31t35 -84v-184q0 -53 -35 -83.5t-87 -30.5h-58v-287h-57zM104 335h58q28 0 46.5 17.5t18.5 48.5v184q0 31 -18.5 49t-46.5 18h-58v-317z" />
<glyph unicode="Q" d="M39 110v479q0 53 34.5 84t86.5 31t87 -31t35 -84v-479q0 -46 -26 -74.5t-67 -35.5v-15q0 -30 18.5 -48t45.5 -18h29v-48h-29q-52 0 -86.5 30.5t-34.5 83.5v15q-42 7 -67.5 35.5t-25.5 74.5zM96 110q0 -30 18.5 -48t45.5 -18q28 0 46.5 17.5t18.5 48.5v479q0 31 -18.5 49 t-46.5 18q-27 0 -45.5 -18t-18.5 -49v-479z" />
<glyph unicode="R" horiz-adv-x="323" d="M47 0v700h115q52 0 87 -31t35 -84v-166q0 -40 -20 -66.5t-54 -35.5l93 -317h-59l-83 305h-57v-305h-57zM104 353h58q28 0 46.5 17.5t18.5 48.5v166q0 31 -18.5 49t-46.5 18h-58v-299z" />
<glyph unicode="S" d="M39 110v90h57v-90q0 -30 18.5 -48t45.5 -18q28 0 46.5 17.5t18.5 48.5v137q0 31 -19 50.5t-46 31t-54.5 25t-46.5 41.5t-19 71v125q0 52 34.5 82.5t85.5 30.5q52 0 86.5 -30.5t34.5 -82.5v-91h-57v91q0 30 -18.5 47.5t-45.5 17.5t-45 -17.5t-18 -47.5v-125q0 -31 19 -51 t46.5 -31.5t54.5 -25t46 -41t19 -70.5v-137q0 -53 -35 -83.5t-87 -30.5t-86.5 30.5t-34.5 83.5z" />
<glyph unicode="T" horiz-adv-x="287" d="M19 652v48h249v-48h-96v-652h-57v652h-96z" />
<glyph unicode="U" d="M39 110v590h57v-590q0 -30 18.5 -48t45.5 -18q28 0 46.5 17.5t18.5 48.5v590h57v-590q0 -53 -35 -83.5t-87 -30.5t-86.5 30.5t-34.5 83.5z" />
<glyph unicode="V" horiz-adv-x="315" d="M16 700h58l82 -631h2l83 631h58l-104 -700h-75z" />
<glyph unicode="W" horiz-adv-x="534" d="M16 700h59l79 -633h2l73 633h75l72 -633h2l79 633h59l-102 -700h-77l-70 628h-2l-70 -628h-76z" />
<glyph unicode="X" horiz-adv-x="315" d="M14 0l100 360l-97 340h59l81 -313h2l80 313h59l-97 -341l100 -359h-59l-83 333h-2l-84 -333h-59z" />
<glyph unicode="Y" horiz-adv-x="315" d="M16 700h57l83 -373h2l84 373h57l-114 -467v-233h-57v233z" />
<glyph unicode="Z" horiz-adv-x="316" d="M39 0v31l177 621h-177v48h238v-31l-176 -621h176v-48h-238z" />
<glyph unicode="[" horiz-adv-x="193" d="M39 -101v851h131v-48h-74v-754h74v-49h-131z" />
<glyph unicode="\" horiz-adv-x="296" d="M31 746h57l177 -846h-57z" />
<glyph unicode="]" horiz-adv-x="193" d="M23 -54h74v755h-74v49h131v-851h-131v47z" />
<glyph unicode="^" horiz-adv-x="334" d="M29 571l159 134l159 -134l-34 -34l-125 108l-125 -108z" />
<glyph unicode="_" d="M-2 -25h325v-48h-325v48z" />
<glyph unicode="`" horiz-adv-x="268" d="M55 667l34 34l123 -102l-34 -35z" />
<glyph unicode="a" d="M39 79v90q0 52 31 79.5t81 34.5l74 9v98q0 31 -18 48.5t-46 17.5t-46.5 -17.5t-18.5 -48.5v-49h-57v49q0 53 35 83.5t87 30.5t86.5 -30.5t34.5 -83.5v-390h-57v52q-35 -56 -106 -56q-34 0 -57 22.5t-23 60.5zM96 92q0 -22 13 -35t33 -13q33 0 58 23t25 60v117l-64 -8 q-65 -9 -65 -67v-77z" />
<glyph unicode="b" horiz-adv-x="328" d="M45 33v692h57v-277q37 56 103 56q36 0 60 -23t24 -63v-308q0 -53 -35 -83.5t-88 -30.5q-34 0 -64.5 9t-43.5 19zM102 63q25 -19 64 -19q28 0 47 18t19 48v295q0 23 -14.5 37t-34.5 14q-35 0 -58 -22.5t-23 -60.5v-310z" />
<glyph unicode="c" horiz-adv-x="315" d="M39 107v285q0 52 33.5 82t84.5 30t85 -30t34 -82v-51h-57v51q0 29 -18 46.5t-44 17.5t-43.5 -17.5t-17.5 -46.5v-285q0 -29 17.5 -46t43.5 -17t44 17t18 46v52h57v-52q0 -51 -34 -81t-85 -30t-84.5 29.5t-33.5 81.5z" />
<glyph unicode="d" horiz-adv-x="329" d="M39 82v308q0 53 32 83.5t80 30.5q44 0 74 -17v238h57v-725h-57v52q-36 -56 -102 -56q-36 0 -60 23t-24 63zM96 95q0 -24 14 -37.5t35 -13.5q35 0 57.5 22.5t22.5 60.5v310q-25 19 -64 19q-28 0 -46.5 -17.5t-18.5 -48.5v-295z" />
<glyph unicode="e" d="M39 110v279q0 53 34.5 84t86.5 31t87 -31t35 -84v-157h-186v-122q0 -30 18.5 -48t45.5 -18q28 0 46.5 17.5t18.5 48.5v49h57v-49q0 -53 -35 -83.5t-87 -30.5t-86.5 30.5t-34.5 83.5zM96 280h129v109q0 33 -18 50t-47 17q-28 0 -46 -17t-18 -50v-109z" />
<glyph unicode="f" horiz-adv-x="233" d="M47 0v614q0 54 33.5 84.5t84.5 30.5q22 0 49 -6v-49q-21 7 -43 7q-29 0 -48 -18t-19 -49v-114h110v-48h-110v-452h-57z" />
<glyph unicode="g" d="M39 -80h57v-34q0 -31 18.5 -49t46.5 -18t46 18t18 49v166q-36 -56 -102 -56q-36 0 -60 23t-24 63v308q0 53 35 83.5t87 30.5q34 0 64.5 -9t43.5 -19l13 -9v-581q0 -53 -34.5 -84t-86.5 -31t-87 31t-35 84v34zM96 95q0 -24 14 -37.5t35 -13.5q35 0 57.5 22.5t22.5 60.5 v310q-25 19 -64 19q-28 0 -46.5 -17.5t-18.5 -48.5v-295z" />
<glyph unicode="h" horiz-adv-x="329" d="M47 0v725h57v-277q37 56 103 56q36 0 60 -23t24 -63v-418h-57v405q0 23 -14.5 37t-34.5 14q-35 0 -58 -22.5t-23 -60.5v-373h-57z" />
<glyph unicode="i" horiz-adv-x="151" d="M47 0v500h57v-500h-57zM47 606v94h57v-94h-57z" />
<glyph unicode="j" horiz-adv-x="151" d="M-46 -174q16 -7 38 -7q23 0 39 14.5t16 39.5v627h57v-627q0 -47 -30.5 -74.5t-76.5 -27.5q-27 0 -43 7v48zM47 606v94h57v-94h-57z" />
<glyph unicode="k" horiz-adv-x="320" d="M47 0v725h57v-446h47l89 221h60l-107 -244l110 -256h-60l-92 233h-47v-233h-57z" />
<glyph unicode="l" horiz-adv-x="151" d="M47 0v725h57v-725h-57z" />
<glyph unicode="m" horiz-adv-x="516" d="M47 0v500h57v-52q37 56 103 56q30 0 52 -15.5t29 -42.5q38 58 105 58q36 0 60 -23t24 -63v-418h-57v405q0 23 -14 37t-35 14q-34 0 -57 -23t-23 -59v-374h-57v405q0 23 -14.5 37t-34.5 14q-35 0 -58 -22.5t-23 -60.5v-373h-57z" />
<glyph unicode="n" horiz-adv-x="329" d="M47 0v500h57v-52q37 56 103 56q36 0 60 -23t24 -63v-418h-57v405q0 23 -14.5 37t-34.5 14q-35 0 -58 -22.5t-23 -60.5v-373h-57z" />
<glyph unicode="o" d="M39 110v279q0 53 34.5 84t86.5 31t87 -31t35 -84v-279q0 -53 -35 -83.5t-87 -30.5t-86.5 30.5t-34.5 83.5zM96 110q0 -30 18.5 -48t45.5 -18q28 0 46.5 17.5t18.5 48.5v279q0 31 -18.5 49t-46.5 18q-27 0 -45.5 -18t-18.5 -49v-279z" />
<glyph unicode="p" horiz-adv-x="329" d="M47 -200v700h57v-52q37 56 103 56q36 0 60 -23t24 -63v-308q0 -53 -32 -83.5t-80 -30.5q-45 0 -75 17v-213h-57zM104 63q25 -19 64 -19q28 0 47 18t19 48v295q0 23 -14.5 37t-34.5 14q-35 0 -58 -22.5t-23 -60.5v-310z" />
<glyph unicode="q" d="M39 82v308q0 53 35 83.5t87 30.5q34 0 64.5 -9t43.5 -19l13 -9v-667h-57v252q-36 -56 -102 -56q-36 0 -60 23t-24 63zM96 95q0 -24 14 -37.5t35 -13.5q35 0 57.5 22.5t22.5 60.5v310q-25 19 -64 19q-28 0 -46.5 -17.5t-18.5 -48.5v-295z" />
<glyph unicode="r" horiz-adv-x="289" d="M47 0v500h57v-73q35 77 100 77q26 0 43.5 -17t17.5 -46v-100h-57v83q0 15 -8.5 23.5t-21.5 8.5q-34 0 -54 -33t-20 -82v-341h-57z" />
<glyph unicode="s" horiz-adv-x="315" d="M39 107v52h57v-52q0 -29 17.5 -46t43.5 -17t44 17t18 46v60q0 27 -18.5 42.5t-44.5 23.5t-52.5 18t-45 34t-18.5 63v46q0 52 33 81t84 29t84.5 -29.5t33.5 -80.5v-53h-57v53q0 29 -17.5 45.5t-43.5 16.5t-43 -16.5t-17 -45.5v-46q0 -27 18.5 -42.5t44.5 -23.5t52.5 -18 t45 -34t18.5 -63v-60q0 -51 -34 -81t-85 -30t-84.5 29.5t-33.5 81.5z" />
<glyph unicode="t" horiz-adv-x="236" d="M47 111v509h57v-120h110v-48h-110v-341q0 -31 19 -49t48 -18q22 0 43 7v-49q-27 -6 -49 -6q-51 0 -84.5 30.5t-33.5 84.5z" />
<glyph unicode="u" horiz-adv-x="329" d="M39 82v418h57v-405q0 -24 14 -37.5t35 -13.5q35 0 57.5 22.5t22.5 60.5v373h57v-500h-57v52q-36 -56 -102 -56q-36 0 -60 23t-24 63z" />
<glyph unicode="v" horiz-adv-x="315" d="M16 500h59l81 -447h2l82 447h59l-104 -500h-75z" />
<glyph unicode="w" horiz-adv-x="509" d="M16 500h59l74 -446h2l66 446h73l67 -446h2l73 446h59l-96 -500h-75l-65 441h-2l-66 -441h-75z" />
<glyph unicode="x" d="M17 0l107 256l-104 244h60l79 -209h2l80 209h60l-103 -244l106 -256h-60l-83 223h-2l-82 -223h-60z" />
<glyph unicode="y" horiz-adv-x="328" d="M39 -80h57v-34q0 -31 18.5 -49t46.5 -18t46 18t18 49v166q-36 -56 -102 -56q-36 0 -60 23t-24 63v418h57v-405q0 -24 14 -37.5t35 -13.5q35 0 57.5 22.5t22.5 60.5v373h57v-614q0 -53 -34.5 -84t-86.5 -31t-87 31t-35 84v34z" />
<glyph unicode="z" horiz-adv-x="316" d="M39 0v31l175 421h-175v48h238v-31l-173 -421h173v-48h-238z" />
<glyph unicode="{" horiz-adv-x="253" d="M24 302v50h10q28 0 46.5 18t18.5 49v220q0 53 34.5 84t86.5 31h10v-48h-10q-28 0 -46 -18t-18 -49v-220q0 -62 -50 -93q50 -28 50 -90v-227q0 -30 18.5 -47.5t45.5 -17.5h10v-48h-10q-51 0 -86 30.5t-35 82.5v227q0 30 -18.5 48t-46.5 18h-10z" />
<glyph unicode="|" horiz-adv-x="151" d="M47 -100v850h57v-850h-57z" />
<glyph unicode="}" horiz-adv-x="253" d="M24 -56h10q28 0 46.5 18t18.5 49v220q0 63 50 93q-50 27 -50 90v227q-1 30 -19 47.5t-46 17.5h-10v48h10q52 0 87 -30.5t35 -82.5v-227q0 -30 18 -48t46 -18h10v-50h-10q-28 0 -46 -18t-18 -49v-220q0 -53 -34.5 -84t-87.5 -31h-10v48z" />
<glyph unicode="~" horiz-adv-x="380" d="M39 236q0 42 26.5 66t66.5 24q24 0 40.5 -9t24 -19t20.5 -19t30 -9q21 0 35.5 13.5t14.5 37.5h44q0 -41 -26.5 -65.5t-66.5 -24.5q-29 0 -47.5 14t-33 28t-33.5 14q-22 0 -36.5 -13.5t-14.5 -37.5h-44z" />
<glyph unicode="&#xa2;" horiz-adv-x="315" d="M39 107v285q0 44 24.5 72.5t64.5 35.5v100h57v-100q41 -7 66 -35.5t25 -72.5v-51h-57v51q0 29 -18 46.5t-44 17.5t-43.5 -17.5t-17.5 -46.5v-285q0 -29 17.5 -46t43.5 -17t44 17t18 46v52h57v-52q0 -44 -25.5 -72.5t-65.5 -34.5v-100h-57v100q-40 6 -64.5 34.5 t-24.5 72.5z" />
<glyph unicode="&#xa3;" horiz-adv-x="341" d="M24 0v48h41v257h-41v48h41v239q0 52 33.5 82t84.5 30t85 -30t34 -82v-92h-57v92q0 29 -18 46.5t-44 17.5t-43.5 -17.5t-17.5 -46.5v-239h180v-48h-180v-257h180v-48h-278z" />
<glyph unicode="&#xa5;" horiz-adv-x="315" d="M16 700h57l83 -373h2l84 373h57l-102 -415h82v-48h-93l-1 -4v-69h94v-48h-94v-116h-57v116h-92v48h92v69l-1 4h-91v48h79z" />
<glyph unicode="&#xa8;" horiz-adv-x="304" d="M52 591v93h50v-93h-50zM194 591v93h50v-93h-50z" />
<glyph unicode="&#xa9;" horiz-adv-x="707" d="M45 265v169q0 123 87.5 196.5t219.5 73.5t221 -73.5t89 -196.5v-169q0 -124 -89 -196.5t-221 -72.5t-219.5 72.5t-87.5 196.5zM102 265q0 -101 71.5 -161t178.5 -60q108 0 180.5 60t72.5 161v169q0 100 -73 161t-180 61q-106 0 -178 -61t-72 -161v-169zM232 265v169 q0 54 34.5 84.5t86.5 30.5t87 -30.5t35 -84.5v-34h-57v34q0 30 -19 48.5t-46 18.5t-45.5 -18t-18.5 -49v-169q0 -30 18.5 -48t45.5 -18t46 18t19 48v35h57v-35q0 -53 -35 -83.5t-87 -30.5t-86.5 30.5t-34.5 83.5z" />
<glyph unicode="&#xab;" horiz-adv-x="301" d="M31 250l70 175h60l-72 -175l72 -175h-60zM147 250l70 175h59l-71 -175l71 -175h-59z" />
<glyph unicode="&#xad;" horiz-adv-x="216" d="M31 251v47h155v-47h-155z" />
<glyph unicode="&#xae;" horiz-adv-x="707" d="M45 265v169q0 123 87.5 196.5t219.5 73.5t221 -73.5t89 -196.5v-169q0 -124 -89 -196.5t-221 -72.5t-219.5 72.5t-87.5 196.5zM102 265q0 -101 71.5 -161t178.5 -60q108 0 180.5 60t72.5 161v169q0 100 -73 161t-180 61q-106 0 -178 -61t-72 -161v-169zM238 167v367h121 q52 0 84 -27t32 -75v-24q0 -71 -68 -90l80 -151h-55l-75 139h-62v-139h-57zM295 354h64q27 0 43 14.5t16 39.5v24q0 25 -16 39.5t-43 14.5h-64v-132z" />
<glyph unicode="&#xb4;" horiz-adv-x="268" d="M55 599l123 103l34 -34l-123 -104z" />
<glyph unicode="&#xb8;" horiz-adv-x="134" d="M45 5h44v-139h-44v139z" />
<glyph unicode="&#xbb;" horiz-adv-x="301" d="M24 75l72 175l-72 175h60l70 -175l-70 -175h-60zM140 75l72 175l-72 175h60l70 -175l-70 -175h-60z" />
<glyph unicode="&#x2c6;" horiz-adv-x="268" d="M18 600l116 92l116 -92l-33 -34l-83 66l-83 -66z" />
<glyph unicode="&#x2da;" d="M79 629q0 39 23 61t58 22t58.5 -22t23.5 -60t-23.5 -59.5t-58.5 -21.5t-58 21t-23 59zM117 629q0 -20 12.5 -32.5t30.5 -12.5q19 0 31.5 12.5t12.5 32.5q0 22 -12.5 34.5t-31.5 12.5q-18 0 -30.5 -12.5t-12.5 -34.5z" />
<glyph unicode="&#x2dc;" d="M40 574q0 35 20.5 55.5t52.5 20.5q29 0 52 -21t41 -21q16 0 26.5 10t10.5 27h38q0 -35 -21 -55.5t-52 -20.5q-28 0 -52 21t-41 21q-16 0 -26.5 -10t-10.5 -27h-38z" />
<glyph unicode="&#x400;" horiz-adv-x="308" d="M47 0v700h222v-48h-165v-269h145v-48h-145v-287h165v-48h-222zM75 867l34 34l123 -102l-34 -35z" />
<glyph unicode="&#x401;" horiz-adv-x="308" d="M47 0v700h222v-48h-165v-269h145v-48h-145v-287h165v-48h-222zM60 750v93h50v-93h-50zM202 750v93h50v-93h-50z" />
<glyph unicode="&#x402;" horiz-adv-x="398" d="M19 652v48h249v-48h-96v-279q37 56 103 56q36 0 60 -23t24 -63v-473q0 -46 -30 -72.5t-75 -26.5q-46 0 -76 26.5t-30 72.5v52h57v-52q0 -23 14 -37t35 -14q20 0 34 14t14 37v460q0 23 -14.5 37t-34.5 14q-35 0 -58 -22.5t-23 -60.5v-298h-57v652h-96z" />
<glyph unicode="&#x403;" horiz-adv-x="283" d="M47 0v700h213v-48h-156v-652h-57zM63 799l123 103l34 -34l-123 -104z" />
<glyph unicode="&#x404;" d="M39 110v479q0 53 34.5 84t86.5 31t87 -31t35 -84v-89h-57v89q0 33 -18 50t-47 17q-28 0 -46 -17t-18 -50v-209h149v-48h-149v-222q0 -30 18.5 -48t45.5 -18q28 0 46.5 17.5t18.5 48.5v90h57v-90q0 -53 -35 -83.5t-87 -30.5t-86.5 30.5t-34.5 83.5z" />
<glyph unicode="&#x405;" d="M39 110v90h57v-90q0 -30 18.5 -48t45.5 -18q28 0 46.5 17.5t18.5 48.5v137q0 31 -19 50.5t-46 31t-54.5 25t-46.5 41.5t-19 71v125q0 52 34.5 82.5t85.5 30.5q52 0 86.5 -30.5t34.5 -82.5v-91h-57v91q0 30 -18.5 47.5t-45.5 17.5t-45 -17.5t-18 -47.5v-125q0 -31 19 -51 t46.5 -31.5t54.5 -25t46 -41t19 -70.5v-137q0 -53 -35 -83.5t-87 -30.5t-86.5 30.5t-34.5 83.5z" />
<glyph unicode="&#x406;" horiz-adv-x="151" d="M47 0v700h57v-700h-57z" />
<glyph unicode="&#x407;" horiz-adv-x="151" d="M-20 759v93h50v-93h-50zM47 0v700h57v-700h-57zM122 759v93h50v-93h-50z" />
<glyph unicode="&#x408;" horiz-adv-x="315" d="M39 108v92h57v-92q0 -29 18 -46.5t44 -17.5t43.5 17.5t17.5 46.5v592h57v-592q0 -52 -33.5 -82t-84.5 -30t-85 30t-34 82z" />
<glyph unicode="&#x409;" horiz-adv-x="518" d="M23 -4v48q22 0 37 22t15 60v574h224v-317h58q52 0 87 -30.5t35 -83.5v-154q0 -53 -35 -84t-87 -31h-115v652h-110v-526q0 -60 -31 -95t-78 -35zM299 48h58q28 0 46.5 18t18.5 49v154q0 31 -18.5 48.5t-46.5 17.5h-58v-287z" />
<glyph unicode="&#x40a;" horiz-adv-x="510" d="M47 0v700h57v-317h130v317h57v-317h57q53 0 88 -30.5t35 -83.5v-154q0 -53 -35 -84t-88 -31h-114v335h-130v-335h-57zM291 48h57q28 0 47 18t19 49v154q0 30 -19 48t-47 18h-57v-287z" />
<glyph unicode="&#x40b;" horiz-adv-x="398" d="M19 652v48h249v-48h-96v-279q37 56 103 56q36 0 60 -23t24 -63v-343h-57v330q0 23 -14.5 37t-34.5 14q-35 0 -58 -22.5t-23 -60.5v-298h-57v652h-96z" />
<glyph unicode="&#x40c;" horiz-adv-x="320" d="M47 0v700h57v-317h37l99 317h59l-113 -341l117 -359h-60l-101 335h-38v-335h-57zM81 799l123 103l34 -34l-123 -104z" />
<glyph unicode="&#x40d;" horiz-adv-x="339" d="M47 0v700h55v-510h2l133 460v50h55v-700h-55v510h-1l-134 -460v-50h-55zM91 867l34 34l123 -102l-34 -35z" />
<glyph unicode="&#x40e;" horiz-adv-x="315" d="M16 700h59l81 -447h2l82 447h59l-129 -607q-19 -93 -106 -93h-28v48h28q38 0 49 46l24 106h-17zM63 853h42q0 -25 14.5 -40t37.5 -15t38.5 15t15.5 40h41q0 -42 -27.5 -67t-67.5 -25t-67 25t-27 67z" />
<glyph unicode="&#x40f;" horiz-adv-x="338" d="M47 0v700h57v-652h130v652h57v-700h-93v-125h-57v125h-94z" />
<glyph unicode="&#x410;" horiz-adv-x="315" d="M16 0l104 700h75l104 -700h-58l-27 188h-114l-26 -188h-58zM104 236h107l-52 395h-2z" />
<glyph unicode="&#x411;" horiz-adv-x="323" d="M47 0v700h225v-48h-168v-235h58q52 0 87 -30.5t35 -83.5v-188q0 -53 -35 -84t-87 -31h-115zM104 48h58q28 0 46.5 18t18.5 49v188q0 31 -18.5 48.5t-46.5 17.5h-58v-321z" />
<glyph unicode="&#x412;" horiz-adv-x="323" d="M47 0v700h115q52 0 87 -31t35 -84v-119q0 -38 -18.5 -64.5t-50.5 -38.5q32 -12 51.5 -39t19.5 -66v-143q0 -53 -35 -84t-87 -31h-117zM104 48h60q28 0 46.5 18t18.5 49v157q0 31 -18.5 48.5t-46.5 17.5h-60v-290zM104 386h58q28 0 46.5 17.5t18.5 48.5v133q0 31 -18.5 49 t-46.5 18h-58v-266z" />
<glyph unicode="&#x413;" horiz-adv-x="283" d="M47 0v700h213v-48h-156v-652h-57z" />
<glyph unicode="&#x414;" horiz-adv-x="381" d="M23 48h10q23 0 38 22t15 60v570h224v-652h48v-173h-57v125h-221v-125h-57v173zM117 48h136v604h-110v-522q0 -53 -26 -82z" />
<glyph unicode="&#x415;" horiz-adv-x="308" d="M47 0v700h222v-48h-165v-269h145v-48h-145v-287h165v-48h-222z" />
<glyph unicode="&#x416;" horiz-adv-x="490" d="M18 0l117 359l-114 341h60l98 -317h38v317h57v-317h37l99 317h59l-114 -341l117 -359h-59l-102 335h-37v-335h-57v335h-38l-102 -335h-59z" />
<glyph unicode="&#x417;" horiz-adv-x="317" d="M37 500v93q0 51 34 81t85 30q52 0 87 -31t35 -84v-123q0 -38 -18.5 -64.5t-50.5 -38.5q32 -12 51.5 -39t19.5 -66v-147q0 -53 -35 -84t-87 -31q-51 0 -85 30t-34 82v92h57v-92q0 -29 18 -46.5t44 -17.5q28 0 46.5 18t18.5 49v161q0 31 -18.5 48.5t-46.5 17.5h-51v48h49 q28 0 46.5 17.5t18.5 48.5v137q0 31 -18.5 49t-46.5 18q-26 0 -44 -17t-18 -46v-93h-57z" />
<glyph unicode="&#x418;" horiz-adv-x="339" d="M47 0v700h55v-510h2l133 460v50h55v-700h-55v510h-1l-134 -460v-50h-55z" />
<glyph unicode="&#x419;" horiz-adv-x="339" d="M47 0v700h55v-510h2l133 460v50h55v-700h-55v510h-1l-134 -460v-50h-55zM75 853h42q0 -25 14.5 -40t37.5 -15t38.5 15t15.5 40h41q0 -42 -27.5 -67t-67.5 -25t-67 25t-27 67z" />
<glyph unicode="&#x41a;" horiz-adv-x="320" d="M47 0v700h57v-317h37l99 317h59l-113 -341l117 -359h-60l-101 335h-38v-335h-57z" />
<glyph unicode="&#x41b;" horiz-adv-x="346" d="M23 -4v48q22 0 37 22t15 60v574h224v-700h-57v652h-110v-526q0 -60 -31 -95t-78 -35z" />
<glyph unicode="&#x41c;" horiz-adv-x="473" d="M47 0v700h85l102 -613h2l105 613h84v-700h-55v599h-2l-99 -599h-66l-99 599h-2v-599h-55z" />
<glyph unicode="&#x41d;" horiz-adv-x="338" d="M47 0v700h57v-317h130v317h57v-700h-57v335h-130v-335h-57z" />
<glyph unicode="&#x41e;" d="M39 110v479q0 53 34.5 84t86.5 31t87 -31t35 -84v-479q0 -53 -35 -83.5t-87 -30.5t-86.5 30.5t-34.5 83.5zM96 110q0 -30 18.5 -48t45.5 -18q28 0 46.5 17.5t18.5 48.5v479q0 31 -18.5 49t-46.5 18q-27 0 -45.5 -18t-18.5 -49v-479z" />
<glyph unicode="&#x41f;" horiz-adv-x="338" d="M47 0v700h244v-700h-57v652h-130v-652h-57z" />
<glyph unicode="&#x420;" horiz-adv-x="323" d="M47 0v700h115q52 0 87 -31t35 -84v-184q0 -53 -35 -83.5t-87 -30.5h-58v-287h-57zM104 335h58q28 0 46.5 17.5t18.5 48.5v184q0 31 -18.5 49t-46.5 18h-58v-317z" />
<glyph unicode="&#x421;" horiz-adv-x="315" d="M39 107v485q0 52 33.5 82t84.5 30t85 -30t34 -82v-92h-57v92q0 29 -18 46.5t-44 17.5t-43.5 -17.5t-17.5 -46.5v-485q0 -29 17.5 -46t43.5 -17t44 17t18 46v93h57v-93q0 -51 -34 -81t-85 -30t-84.5 29.5t-33.5 81.5z" />
<glyph unicode="&#x422;" horiz-adv-x="287" d="M19 652v48h249v-48h-96v-652h-57v652h-96z" />
<glyph unicode="&#x423;" horiz-adv-x="315" d="M16 700h59l81 -447h2l82 447h59l-129 -607q-19 -93 -106 -93h-28v48h28q38 0 49 46l24 106h-17z" />
<glyph unicode="&#x424;" horiz-adv-x="464" d="M39 197v307q0 53 35 83.5t87 30.5h42v82h57v-82h43q52 0 87 -30.5t35 -83.5v-307q0 -53 -35 -84t-87 -31h-43v-82h-57v82h-42q-52 0 -87 31t-35 84zM96 197q0 -31 18.5 -49t46.5 -18h42v440h-42q-28 0 -46.5 -18t-18.5 -48v-307zM260 130h43q27 0 46 18.5t19 48.5v307 q0 30 -19 48t-46 18h-43v-440z" />
<glyph unicode="&#x425;" horiz-adv-x="315" d="M14 0l100 360l-97 340h59l81 -313h2l80 313h59l-97 -341l100 -359h-59l-83 333h-2l-84 -333h-59z" />
<glyph unicode="&#x426;" horiz-adv-x="361" d="M47 0v700h57v-652h130v652h57v-652h48v-173h-57v125h-235z" />
<glyph unicode="&#x427;" horiz-adv-x="329" d="M39 372v328h57v-315q0 -23 14 -36.5t35 -13.5q35 0 57.5 22.5t22.5 60.5v282h57v-700h-57v342q-36 -55 -102 -55q-36 0 -60 23t-24 62z" />
<glyph unicode="&#x428;" horiz-adv-x="511" d="M47 0v700h57v-652h123v652h57v-652h123v652h57v-700h-417z" />
<glyph unicode="&#x429;" horiz-adv-x="535" d="M47 0v700h57v-652h123v652h57v-652h123v652h57v-652h49v-173h-57v125h-409z" />
<glyph unicode="&#x42a;" horiz-adv-x="391" d="M23 652v48h149v-283h58q52 0 87 -30.5t35 -83.5v-188q0 -53 -35 -84t-87 -31h-115v652h-92zM172 48h58q28 0 46.5 18t18.5 49v188q0 31 -18.5 48.5t-46.5 17.5h-58v-321z" />
<glyph unicode="&#x42b;" horiz-adv-x="447" d="M47 0v700h57v-283h58q52 0 87 -30.5t35 -83.5v-188q0 -53 -35 -84t-87 -31h-115zM104 48h58q28 0 46.5 18t18.5 49v188q0 31 -18.5 48.5t-46.5 17.5h-58v-321zM343 0v700h57v-700h-57z" />
<glyph unicode="&#x42c;" horiz-adv-x="323" d="M47 0v700h57v-283h58q52 0 87 -30.5t35 -83.5v-188q0 -53 -35 -84t-87 -31h-115zM104 48h58q28 0 46.5 18t18.5 49v188q0 31 -18.5 48.5t-46.5 17.5h-58v-321z" />
<glyph unicode="&#x42d;" d="M39 110v90h57v-90q0 -31 18.5 -48.5t46.5 -17.5t46 17.5t18 48.5v222h-126v48h126v209q0 33 -17.5 50t-46.5 17t-47 -17t-18 -50v-89h-57v89q0 53 35 84t87 31t86.5 -31t34.5 -84v-479q0 -53 -34.5 -83.5t-86.5 -30.5t-87 30.5t-35 83.5z" />
<glyph unicode="&#x42e;" horiz-adv-x="459" d="M47 0v700h57v-320h73v209q0 53 34.5 84t86.5 31t87 -31t35 -84v-479q0 -53 -35 -83.5t-87 -30.5t-86.5 30.5t-34.5 83.5v222h-73v-332h-57zM234 110q0 -30 18.5 -48t45.5 -18q28 0 46.5 17.5t18.5 48.5v479q0 31 -18.5 49t-46.5 18q-27 0 -45.5 -18t-18.5 -49v-479z" />
<glyph unicode="&#x42f;" horiz-adv-x="323" d="M20 0l93 317q-34 9 -54 35.5t-20 66.5v166q0 53 35 84t87 31h115v-700h-57v305h-57l-83 -305h-59zM96 419q0 -31 18.5 -48.5t46.5 -17.5h58v299h-58q-28 0 -46.5 -18t-18.5 -49v-166z" />
<glyph unicode="&#x430;" d="M39 79v90q0 52 31 80t81 34l74 9v98q0 31 -18 48.5t-46 17.5t-46.5 -17.5t-18.5 -48.5v-49h-57v49q0 53 35 83.5t87 30.5t86.5 -30.5t34.5 -83.5v-390h-57v52q-35 -56 -106 -56q-34 0 -57 22.5t-23 60.5zM96 92q0 -22 13 -35t33 -13q33 0 58 23t25 60v117l-64 -8 q-65 -9 -65 -67v-77z" />
<glyph unicode="&#x431;" d="M39 110v415q0 42 18 69t44 39.5t52.5 22.5t44.5 26.5t18 42.5h46q0 -37 -17 -60t-41.5 -34.5t-49 -22t-41.5 -31t-17 -52.5v-77q37 56 103 56q35 0 59 -23t24 -63v-308q0 -53 -35 -83.5t-87 -30.5t-86.5 30.5t-34.5 83.5zM96 110q0 -30 18.5 -48t45.5 -18q28 0 46.5 17.5 t18.5 48.5v295q0 23 -14 37t-35 14q-34 0 -57 -22.5t-23 -60.5v-263z" />
<glyph unicode="&#x432;" horiz-adv-x="323" d="M47 0v500h115q50 0 83 -29t33 -80v-31q0 -73 -63 -97q32 -12 51.5 -39t19.5 -66v-43q0 -53 -35 -84t-87 -31h-117zM104 48h60q28 0 46.5 18t18.5 49v57q0 31 -18.5 48.5t-46.5 17.5h-60v-190zM104 286h58q26 0 42.5 16t16.5 44v45q0 28 -16.5 44.5t-42.5 16.5h-58v-166z " />
<glyph unicode="&#x433;" horiz-adv-x="273" d="M47 0v500h204v-48h-147v-452h-57z" />
<glyph unicode="&#x434;" horiz-adv-x="381" d="M23 48h10q23 0 38 22t15 60v370h224v-452h48v-173h-57v125h-221v-125h-57v173zM117 48h136v404h-110v-322q0 -53 -26 -82z" />
<glyph unicode="&#x435;" d="M39 110v279q0 53 34.5 84t86.5 31t87 -31t35 -84v-157h-186v-122q0 -30 18.5 -48t45.5 -18q28 0 46.5 17.5t18.5 48.5v49h57v-49q0 -53 -35 -83.5t-87 -30.5t-86.5 30.5t-34.5 83.5zM96 280h129v109q0 33 -18 50t-47 17q-28 0 -46 -17t-18 -50v-109z" />
<glyph unicode="&#x436;" horiz-adv-x="489" d="M17 0l110 256l-107 244h60l89 -221h47v221h57v-221h47l88 221h60l-106 -244l110 -256h-60l-92 233h-47v-233h-57v233h-47l-92 -233h-60z" />
<glyph unicode="&#x437;" horiz-adv-x="317" d="M37 341v52q0 51 34 81t85 30q52 0 87 -31t35 -84v-26q0 -78 -69 -103q71 -27 71 -105v-44q0 -53 -35 -84t-87 -31q-51 0 -85 30t-34 82v51h57v-51q0 -29 18 -46.5t44 -17.5q28 0 46.5 18t18.5 49v58q0 31 -18.5 48.5t-46.5 17.5h-49v48h47q28 0 46.5 17.5t18.5 48.5v40 q0 31 -18.5 49t-46.5 18q-26 0 -44 -17t-18 -46v-52h-57z" />
<glyph unicode="&#x438;" horiz-adv-x="339" d="M47 0v500h55v-352h2l133 328v24h55v-500h-55v352h-1l-134 -328v-24h-55z" />
<glyph unicode="&#x439;" horiz-adv-x="339" d="M47 0v500h55v-352h2l133 328v24h55v-500h-55v352h-1l-134 -328v-24h-55zM75 653h42q0 -25 14.5 -40t37.5 -15t38.5 15t15.5 40h41q0 -42 -27.5 -67t-67.5 -25t-67 25t-27 67z" />
<glyph unicode="&#x43a;" horiz-adv-x="320" d="M47 0v500h57v-221h47l89 221h60l-107 -244l110 -256h-60l-92 233h-47v-233h-57z" />
<glyph unicode="&#x43b;" horiz-adv-x="346" d="M23 -4v48q22 0 37 22t15 60v374h224v-500h-57v452h-110v-326q0 -60 -31 -95t-78 -35z" />
<glyph unicode="&#x43c;" horiz-adv-x="465" d="M47 0v500h84l100 -427h2l100 427h85v-500h-53v430h-2l-98 -430h-65l-98 430h-2v-430h-53z" />
<glyph unicode="&#x43d;" horiz-adv-x="338" d="M47 0v500h57v-220h130v220h57v-500h-57v232h-130v-232h-57z" />
<glyph unicode="&#x43e;" d="M39 110v279q0 53 34.5 84t86.5 31t87 -31t35 -84v-279q0 -53 -35 -83.5t-87 -30.5t-86.5 30.5t-34.5 83.5zM96 110q0 -30 18.5 -48t45.5 -18q28 0 46.5 17.5t18.5 48.5v279q0 31 -18.5 49t-46.5 18q-27 0 -45.5 -18t-18.5 -49v-279z" />
<glyph unicode="&#x43f;" horiz-adv-x="338" d="M47 0v500h244v-500h-57v452h-130v-452h-57z" />
<glyph unicode="&#x440;" horiz-adv-x="329" d="M47 -200v700h57v-52q37 56 103 56q36 0 60 -23t24 -63v-308q0 -53 -32 -83.5t-80 -30.5q-45 0 -75 17v-213h-57zM104 63q25 -19 64 -19q28 0 47 18t19 48v295q0 23 -14.5 37t-34.5 14q-35 0 -58 -22.5t-23 -60.5v-310z" />
<glyph unicode="&#x441;" horiz-adv-x="315" d="M39 107v285q0 52 33.5 82t84.5 30t85 -30t34 -82v-51h-57v51q0 29 -18 46.5t-44 17.5t-43.5 -17.5t-17.5 -46.5v-285q0 -29 17.5 -46t43.5 -17t44 17t18 46v52h57v-52q0 -51 -34 -81t-85 -30t-84.5 29.5t-33.5 81.5z" />
<glyph unicode="&#x442;" horiz-adv-x="287" d="M19 452v48h249v-48h-96v-452h-57v452h-96z" />
<glyph unicode="&#x443;" horiz-adv-x="315" d="M16 500h59l81 -447h2l82 447h59l-129 -607q-19 -93 -106 -93h-28v48h28q38 0 49 46l24 106h-17z" />
<glyph unicode="&#x444;" horiz-adv-x="464" d="M39 115v271q0 53 35 83.5t87 30.5h42v225h57v-225h43q52 0 87 -30.5t35 -83.5v-271q0 -53 -35 -84t-87 -31h-43v-200h-57v200h-42q-52 0 -87 31t-35 84zM96 115q0 -31 18.5 -49t46.5 -18h42v404h-42q-28 0 -46.5 -17.5t-18.5 -48.5v-271zM260 48h43q27 0 46 18.5t19 48.5 v271q0 30 -19 48t-46 18h-43v-404z" />
<glyph unicode="&#x445;" d="M17 0l107 256l-104 244h60l79 -209h2l80 209h60l-103 -244l106 -256h-60l-83 223h-2l-82 -223h-60z" />
<glyph unicode="&#x446;" horiz-adv-x="361" d="M47 0v500h57v-452h130v452h57v-452h48v-173h-57v125h-235z" />
<glyph unicode="&#x447;" horiz-adv-x="329" d="M39 272v228h57v-215q0 -23 14 -36.5t35 -13.5q35 0 57.5 22.5t22.5 60.5v182h57v-500h-57v242q-36 -55 -102 -55q-36 0 -60 23t-24 62z" />
<glyph unicode="&#x448;" horiz-adv-x="511" d="M47 0v500h57v-452h123v452h57v-452h123v452h57v-500h-417z" />
<glyph unicode="&#x449;" horiz-adv-x="535" d="M47 0v500h57v-452h123v452h57v-452h123v452h57v-452h49v-173h-57v125h-409z" />
<glyph unicode="&#x44a;" horiz-adv-x="389" d="M23 452v48h147v-193h58q52 0 87 -30.5t35 -83.5v-78q0 -53 -35 -84t-87 -31h-115v452h-90zM170 48h58q27 0 46 18.5t19 48.5v78q0 30 -19 48t-46 18h-58v-211z" />
<glyph unicode="&#x44b;" horiz-adv-x="447" d="M47 0v500h57v-193h58q52 0 87 -30.5t35 -83.5v-78q0 -53 -35 -84t-87 -31h-115zM104 48h58q28 0 46.5 18t18.5 49v78q0 31 -18.5 48.5t-46.5 17.5h-58v-211zM343 0v500h57v-500h-57z" />
<glyph unicode="&#x44c;" horiz-adv-x="323" d="M47 0v500h57v-193h58q52 0 87 -30.5t35 -83.5v-78q0 -53 -35 -84t-87 -31h-115zM104 48h58q28 0 46.5 18t18.5 49v78q0 31 -18.5 48.5t-46.5 17.5h-58v-211z" />
<glyph unicode="&#x44d;" d="M39 110v49h57v-49q0 -31 18.5 -48.5t46.5 -17.5t46 17.5t18 48.5v122h-120v48h120v109q0 33 -17.5 50t-46.5 17t-47 -17t-18 -50v-48h-57v48q0 53 35 84t87 31t86.5 -31t34.5 -84v-279q0 -53 -34.5 -83.5t-86.5 -30.5t-87 30.5t-35 83.5z" />
<glyph unicode="&#x44e;" horiz-adv-x="459" d="M47 0v500h57v-220h73v109q0 53 34.5 84t86.5 31t87 -31t35 -84v-279q0 -53 -35 -83.5t-87 -30.5t-86.5 30.5t-34.5 83.5v122h-73v-232h-57zM234 110q0 -30 18.5 -48t45.5 -18q28 0 46.5 17.5t18.5 48.5v279q0 31 -18.5 49t-46.5 18q-27 0 -45.5 -18t-18.5 -49v-279z" />
<glyph unicode="&#x44f;" horiz-adv-x="323" d="M30 0l86 212q-35 9 -56 36.5t-21 68.5v68q0 53 35 84t87 31h115v-500h-57v203h-56l-75 -203h-58zM96 317q0 -31 18.5 -48.5t46.5 -17.5h58v201h-58q-28 0 -46.5 -18t-18.5 -49v-68z" />
<glyph unicode="&#x450;" d="M39 110v279q0 53 34.5 84t86.5 31t87 -31t35 -84v-157h-186v-122q0 -30 18.5 -48t45.5 -18q28 0 46.5 17.5t18.5 48.5v49h57v-49q0 -53 -35 -83.5t-87 -30.5t-86.5 30.5t-34.5 83.5zM82 667l34 34l123 -102l-34 -35zM96 280h129v109q0 33 -18 50t-47 17q-28 0 -46 -17 t-18 -50v-109z" />
<glyph unicode="&#x451;" d="M39 110v279q0 53 34.5 84t86.5 31t87 -31t35 -84v-157h-186v-122q0 -30 18.5 -48t45.5 -18q28 0 46.5 17.5t18.5 48.5v49h57v-49q0 -53 -35 -83.5t-87 -30.5t-86.5 30.5t-34.5 83.5zM65 591v93h50v-93h-50zM96 280h129v109q0 33 -18 50t-47 17q-28 0 -46 -17t-18 -50 v-109zM207 591v93h50v-93h-50z" />
<glyph unicode="&#x452;" horiz-adv-x="351" d="M23 586v48h46v91h57v-91h129v-48h-129v-138q37 56 103 56q35 0 59 -23t24 -63v-548q0 -46 -30 -72.5t-74 -26.5q-46 0 -76 26.5t-30 72.5v52h57v-52q0 -23 14 -37t35 -14q20 0 33.5 14t13.5 37v535q0 23 -14 37t-35 14q-34 0 -57 -22.5t-23 -60.5v-373h-57v586h-46z" />
<glyph unicode="&#x453;" horiz-adv-x="273" d="M47 0v500h204v-48h-147v-452h-57zM58 599l123 103l34 -34l-123 -104z" />
<glyph unicode="&#x454;" d="M39 110v279q0 53 34.5 84t86.5 31t87 -31t35 -84v-48h-57v48q0 33 -18 50t-47 17q-28 0 -46 -17t-18 -50v-109h137v-48h-137v-122q0 -30 18.5 -48t45.5 -18q28 0 46.5 17.5t18.5 48.5v49h57v-49q0 -53 -35 -83.5t-87 -30.5t-86.5 30.5t-34.5 83.5z" />
<glyph unicode="&#x455;" horiz-adv-x="315" d="M39 107v52h57v-52q0 -29 17.5 -46t43.5 -17t44 17t18 46v60q0 27 -18.5 42.5t-44.5 23.5t-52.5 18t-45 34t-18.5 63v46q0 52 33 81t84 29t84.5 -29.5t33.5 -80.5v-53h-57v53q0 29 -17.5 45.5t-43.5 16.5t-43 -16.5t-17 -45.5v-46q0 -27 18.5 -42.5t44.5 -23.5t52.5 -18 t45 -34t18.5 -63v-60q0 -51 -34 -81t-85 -30t-84.5 29.5t-33.5 81.5z" />
<glyph unicode="&#x456;" horiz-adv-x="151" d="M47 0v500h57v-500h-57zM47 606v94h57v-94h-57z" />
<glyph unicode="&#x457;" horiz-adv-x="151" d="M-20 591v93h50v-93h-50zM47 0v500h57v-500h-57zM122 591v93h50v-93h-50z" />
<glyph unicode="&#x458;" horiz-adv-x="151" d="M-46 -174q16 -7 38 -7q23 0 39 14.5t16 39.5v627h57v-627q0 -47 -30.5 -74.5t-76.5 -27.5q-27 0 -43 7v48zM47 606v94h57v-94h-57z" />
<glyph unicode="&#x459;" horiz-adv-x="518" d="M23 -4v48q22 0 37 22t15 60v374h224v-215h58q52 0 87 -30.5t35 -83.5v-56q0 -53 -35 -84t-87 -31h-115v452h-110v-326q0 -60 -31 -95t-78 -35zM299 48h58q28 0 46.5 18t18.5 49v56q0 31 -18.5 48.5t-46.5 17.5h-58v-189z" />
<glyph unicode="&#x45a;" horiz-adv-x="510" d="M47 0v500h57v-215h130v215h57v-215h57q53 0 88 -30.5t35 -83.5v-56q0 -53 -35 -84t-88 -31h-114v237h-130v-237h-57zM291 48h57q28 0 47 18t19 49v56q0 30 -19 48t-47 18h-57v-189z" />
<glyph unicode="&#x45b;" horiz-adv-x="351" d="M23 586v48h46v91h57v-91h129v-48h-129v-138q37 56 103 56q35 0 59 -23t24 -63v-418h-57v405q0 23 -14 37t-35 14q-34 0 -57 -22.5t-23 -60.5v-373h-57v586h-46z" />
<glyph unicode="&#x45c;" horiz-adv-x="320" d="M47 0v500h57v-221h47l89 221h60l-107 -244l110 -256h-60l-92 233h-47v-233h-57zM81 599l123 103l34 -34l-123 -104z" />
<glyph unicode="&#x45d;" horiz-adv-x="339" d="M47 0v500h55v-352h2l133 328v24h55v-500h-55v352h-1l-134 -328v-24h-55zM91 667l34 34l123 -102l-34 -35z" />
<glyph unicode="&#x45e;" horiz-adv-x="315" d="M16 500h59l81 -447h2l82 447h59l-129 -607q-19 -93 -106 -93h-28v48h28q38 0 49 46l24 106h-17zM63 653h42q0 -25 14.5 -40t37.5 -15t38.5 15t15.5 40h41q0 -42 -27.5 -67t-67.5 -25t-67 25t-27 67z" />
<glyph unicode="&#x45f;" horiz-adv-x="338" d="M47 0v500h57v-452h130v452h57v-500h-93v-125h-57v125h-94z" />
<glyph unicode="&#x490;" horiz-adv-x="282" d="M47 0v700h165v100h48v-148h-156v-652h-57z" />
<glyph unicode="&#x491;" horiz-adv-x="273" d="M47 0v500h156v100h48v-148h-147v-452h-57z" />
<glyph unicode="&#x4d8;" horiz-adv-x="315" d="M39 107v268h180v217q0 29 -17.5 46.5t-43.5 17.5t-44 -17.5t-18 -46.5v-92h-57v92q0 52 34 82t85 30t84.5 -30t33.5 -82v-485q0 -52 -33.5 -81.5t-84.5 -29.5t-85 30t-34 81zM96 107q0 -29 18 -46t44 -17t43.5 17t17.5 46v220h-123v-220z" />
<glyph unicode="&#x4d9;" d="M39 111v169h186v110q0 31 -18 48.5t-46 17.5t-46.5 -17.5t-18.5 -48.5v-44h-57v44q0 53 35 83.5t87 30.5t86.5 -30.5t34.5 -83.5v-279q0 -53 -34.5 -84t-86.5 -31t-87 31t-35 84zM96 111q0 -33 18 -50t47 -17t46.5 17t17.5 50v121h-129v-121z" />
<glyph unicode="&#x2000;" horiz-adv-x="451" />
<glyph unicode="&#x2001;" horiz-adv-x="902" />
<glyph unicode="&#x2002;" horiz-adv-x="451" />
<glyph unicode="&#x2003;" horiz-adv-x="902" />
<glyph unicode="&#x2004;" horiz-adv-x="300" />
<glyph unicode="&#x2005;" horiz-adv-x="225" />
<glyph unicode="&#x2006;" horiz-adv-x="150" />
<glyph unicode="&#x2007;" horiz-adv-x="150" />
<glyph unicode="&#x2008;" horiz-adv-x="112" />
<glyph unicode="&#x2009;" horiz-adv-x="180" />
<glyph unicode="&#x200a;" horiz-adv-x="50" />
<glyph unicode="&#x2010;" horiz-adv-x="216" d="M31 251v47h155v-47h-155z" />
<glyph unicode="&#x2011;" horiz-adv-x="216" d="M31 251v47h155v-47h-155z" />
<glyph unicode="&#x2012;" horiz-adv-x="216" d="M31 251v47h155v-47h-155z" />
<glyph unicode="&#x2013;" horiz-adv-x="338" d="M31 251v47h276v-47h-276z" />
<glyph unicode="&#x2014;" horiz-adv-x="524" d="M31 251v47h462v-47h-462z" />
<glyph unicode="&#x2018;" horiz-adv-x="146" d="M45 510v93q0 25 9 55.5t18 48.5l9 18h47q-28 -65 -28 -122v-93h-55z" />
<glyph unicode="&#x2019;" horiz-adv-x="146" d="M17 510q28 65 28 121v94h55v-94q0 -25 -9 -55t-17 -48l-9 -18h-48z" />
<glyph unicode="&#x201a;" horiz-adv-x="146" d="M17 -122q28 65 28 122v93h55v-93q0 -25 -9 -55.5t-17 -48.5l-9 -18h-48z" />
<glyph unicode="&#x201c;" horiz-adv-x="248" d="M45 510v93q0 25 9 55.5t18 48.5l9 18h47q-28 -65 -28 -122v-93h-55zM154 510v93q0 25 9 55.5t18 48.5l9 18h48q-29 -65 -29 -122v-93h-55z" />
<glyph unicode="&#x201d;" horiz-adv-x="248" d="M17 510q28 65 28 121v94h55v-94q0 -25 -9 -55t-17 -48l-9 -18h-48zM126 510q28 65 28 121v94h55v-94q0 -25 -8.5 -55t-17.5 -48l-9 -18h-48z" />
<glyph unicode="&#x201e;" horiz-adv-x="248" d="M17 -122q28 65 28 122v93h55v-93q0 -25 -9 -55.5t-17 -48.5l-9 -18h-48zM126 -122q28 65 28 122v93h55v-93q0 -25 -8.5 -55.5t-17.5 -48.5l-9 -18h-48z" />
<glyph unicode="&#x2026;" horiz-adv-x="383" d="M45 0v93h55v-93h-55zM164 0v93h55v-93h-55zM282 0v93h55v-93h-55z" />
<glyph unicode="&#x202f;" horiz-adv-x="180" />
<glyph unicode="&#x2039;" horiz-adv-x="185" d="M31 250l70 175h60l-72 -175l72 -175h-60z" />
<glyph unicode="&#x203a;" horiz-adv-x="185" d="M24 75l72 175l-72 175h60l70 -175l-70 -175h-60z" />
<glyph unicode="&#x205f;" horiz-adv-x="225" />
<glyph unicode="&#x20ac;" horiz-adv-x="341" d="M24 270v47h41v74h-41v47h41v154q0 52 33.5 82t84.5 30t85 -30t34 -82v-92h-57v92q0 29 -18 46.5t-44 17.5t-43.5 -17.5t-17.5 -46.5v-154h180v-47h-180v-74h180v-47h-180v-163q0 -29 17.5 -46t43.5 -17t44 17t18 46v93h57v-93q0 -52 -34 -81.5t-85 -29.5t-84.5 29.5 t-33.5 81.5v163h-41z" />
<glyph unicode="&#x2122;" horiz-adv-x="288" d="M19 682v28h127v-28h-46v-232h-35v232h-46zM169 450v260h51l47 -216h1l46 216h51v-260h-32v219h-1l-45 -219h-39l-45 219h-1v-219h-33z" />
<glyph unicode="&#xe000;" horiz-adv-x="500" d="M0 0v500h500v-500h-500z" />
</font>
</defs>
</svg>
