<?xml version="1.0" encoding="utf-8"?>
<!-- Generator: Adobe Illustrator 16.0.0, SVG Export Plug-In . SVG Version: 6.00 Build 0)  -->
<!DOCTYPE svg PUBLIC "-//W3C//DTD SVG 1.1//EN" "http://www.w3.org/Graphics/SVG/1.1/DTD/svg11.dtd">
<svg version="1.1" id="Layer_1" xmlns="http://www.w3.org/2000/svg" xmlns:xlink="http://www.w3.org/1999/xlink" x="0px" y="0px"
	 width="940px" height="1px" viewBox="0 0 940 1" enable-background="new 0 0 940 1" xml:space="preserve">
<g>
	<g>
		<polygon fill="#FFFFFF" points="1.5,1 -0.5,1 -0.5,0 1.5,0 1.5,0.5 0.5,0.5 1.5,0.5 		"/>
	</g>
	<g>
		<path fill="#FFFFFF" d="M935.503,0.5h-2.994V0h2.994V0.5z M929.516,0.5h-2.993V0h2.993V0.5z M923.528,0.5h-2.993V0h2.993V0.5z
			 M917.541,0.5h-2.993V0h2.993V0.5z M911.554,0.5h-2.993V0h2.993V0.5z M905.567,0.5h-2.994V0h2.994V0.5z M899.58,0.5h-2.994V0
			h2.994V0.5z M893.593,0.5h-2.994V0h2.994V0.5z M887.605,0.5h-2.994V0h2.994V0.5z M881.618,0.5h-2.993V0h2.993V0.5z M875.631,0.5
			h-2.993V0h2.993V0.5z M869.644,0.5h-2.993V0h2.993V0.5z M863.656,0.5h-2.993V0h2.993V0.5z M857.67,0.5h-2.994V0h2.994V0.5z
			 M851.683,0.5h-2.994V0h2.994V0.5z M845.695,0.5h-2.994V0h2.994V0.5z M839.708,0.5h-2.993V0h2.993V0.5z M833.721,0.5h-2.993V0
			h2.993V0.5z M827.733,0.5h-2.993V0h2.993V0.5z M821.746,0.5h-2.993V0h2.993V0.5z M815.76,0.5h-2.994V0h2.994V0.5z M809.772,0.5
			h-2.994V0h2.994V0.5z M803.785,0.5h-2.994V0h2.994V0.5z M797.798,0.5h-2.993V0h2.993V0.5z M791.811,0.5h-2.993V0h2.993V0.5z
			 M785.823,0.5h-2.993V0h2.993V0.5z M779.836,0.5h-2.993V0h2.993V0.5z M773.85,0.5h-2.994V0h2.994V0.5z M767.862,0.5h-2.994V0
			h2.994V0.5z M761.875,0.5h-2.994V0h2.994V0.5z M755.888,0.5h-2.993V0h2.993V0.5z M749.9,0.5h-2.993V0h2.993V0.5z M743.913,0.5
			h-2.993V0h2.993V0.5z M737.926,0.5h-2.993V0h2.993V0.5z M731.939,0.5h-2.994V0h2.994V0.5z M725.952,0.5h-2.994V0h2.994V0.5z
			 M719.965,0.5h-2.994V0h2.994V0.5z M713.978,0.5h-2.993V0h2.993V0.5z M707.99,0.5h-2.993V0h2.993V0.5z M702.003,0.5h-2.993V0
			h2.993V0.5z M696.016,0.5h-2.993V0h2.993V0.5z M690.029,0.5h-2.994V0h2.994V0.5z M684.042,0.5h-2.994V0h2.994V0.5z M678.055,0.5
			h-2.994V0h2.994V0.5z M672.067,0.5h-2.993V0h2.993V0.5z M666.08,0.5h-2.993V0h2.993V0.5z M660.093,0.5H657.1V0h2.993V0.5z
			 M654.105,0.5h-2.993V0h2.993V0.5z M648.119,0.5h-2.994V0h2.994V0.5z M642.132,0.5h-2.994V0h2.994V0.5z M636.145,0.5h-2.994V0
			h2.994V0.5z M630.157,0.5h-2.993V0h2.993V0.5z M624.17,0.5h-2.993V0h2.993V0.5z M618.183,0.5h-2.993V0h2.993V0.5z M612.195,0.5
			h-2.993V0h2.993V0.5z M606.208,0.5h-2.993V0h2.993V0.5z M600.222,0.5h-2.994V0h2.994V0.5z M594.234,0.5h-2.994V0h2.994V0.5z
			 M588.247,0.5h-2.994V0h2.994V0.5z M582.26,0.5h-2.993V0h2.993V0.5z M576.272,0.5h-2.993V0h2.993V0.5z M570.285,0.5h-2.993V0
			h2.993V0.5z M564.298,0.5h-2.993V0h2.993V0.5z M558.312,0.5h-2.994V0h2.994V0.5z M552.324,0.5h-2.994V0h2.994V0.5z M546.337,0.5
			h-2.994V0h2.994V0.5z M540.35,0.5h-2.993V0h2.993V0.5z M534.362,0.5h-2.993V0h2.993V0.5z M528.375,0.5h-2.993V0h2.993V0.5z
			 M522.388,0.5h-2.993V0h2.993V0.5z M516.401,0.5h-2.994V0h2.994V0.5z M510.414,0.5h-2.994V0h2.994V0.5z M504.427,0.5h-2.994V0
			h2.994V0.5z M498.439,0.5h-2.993V0h2.993V0.5z M492.452,0.5h-2.993V0h2.993V0.5z M486.465,0.5h-2.993V0h2.993V0.5z M480.478,0.5
			h-2.993V0h2.993V0.5z M474.49,0.5h-2.993V0h2.993V0.5z M468.503,0.5h-2.994V0h2.994V0.5z M462.516,0.5h-2.994V0h2.994V0.5z
			 M456.529,0.5h-2.994V0h2.994V0.5z M450.542,0.5h-2.994V0h2.994V0.5z M444.555,0.5h-2.994V0h2.994V0.5z M438.567,0.5h-2.994V0
			h2.994V0.5z M432.58,0.5h-2.994V0h2.994V0.5z M426.593,0.5h-2.994V0h2.994V0.5z M420.606,0.5h-2.994V0h2.994V0.5z M414.619,0.5
			h-2.994V0h2.994V0.5z M408.631,0.5h-2.994V0h2.994V0.5z M402.644,0.5h-2.994V0h2.994V0.5z M396.657,0.5h-2.994V0h2.994V0.5z
			 M390.669,0.5h-2.994V0h2.994V0.5z M384.683,0.5h-2.994V0h2.994V0.5z M378.695,0.5h-2.994V0h2.994V0.5z M372.708,0.5h-2.994V0
			h2.994V0.5z M366.721,0.5h-2.994V0h2.994V0.5z M360.733,0.5h-2.994V0h2.994V0.5z M354.746,0.5h-2.994V0h2.994V0.5z M348.759,0.5
			h-2.993V0h2.993V0.5z M342.772,0.5h-2.994V0h2.994V0.5z M336.785,0.5h-2.994V0h2.994V0.5z M330.797,0.5h-2.994V0h2.994V0.5z
			 M324.81,0.5h-2.994V0h2.994V0.5z M318.823,0.5h-2.994V0h2.994V0.5z M312.836,0.5h-2.994V0h2.994V0.5z M306.849,0.5h-2.994V0
			h2.994V0.5z M300.861,0.5h-2.994V0h2.994V0.5z M294.874,0.5h-2.994V0h2.994V0.5z M288.887,0.5h-2.994V0h2.994V0.5z M282.899,0.5
			h-2.994V0h2.994V0.5z M276.912,0.5h-2.993V0h2.993V0.5z M270.925,0.5h-2.994V0h2.994V0.5z M264.938,0.5h-2.994V0h2.994V0.5z
			 M258.951,0.5h-2.994V0h2.994V0.5z M252.963,0.5h-2.994V0h2.994V0.5z M246.976,0.5h-2.994V0h2.994V0.5z M240.989,0.5h-2.993V0
			h2.993V0.5z M235.002,0.5h-2.994V0h2.994V0.5z M229.015,0.5h-2.994V0h2.994V0.5z M223.027,0.5h-2.994V0h2.994V0.5z M217.04,0.5
			h-2.994V0h2.994V0.5z M211.053,0.5h-2.994V0h2.994V0.5z M205.065,0.5h-2.993V0h2.993V0.5z M199.079,0.5h-2.994V0h2.994V0.5z
			 M193.091,0.5h-2.994V0h2.994V0.5z M187.104,0.5h-2.994V0h2.994V0.5z M181.117,0.5h-2.994V0h2.994V0.5z M175.129,0.5h-2.994V0
			h2.994V0.5z M169.142,0.5h-2.994V0h2.994V0.5z M163.155,0.5h-2.994V0h2.994V0.5z M157.168,0.5h-2.994V0h2.994V0.5z M151.181,0.5
			h-2.994V0h2.994V0.5z M145.193,0.5H142.2V0h2.994V0.5z M139.206,0.5h-2.994V0h2.994V0.5z M133.219,0.5h-2.994V0h2.994V0.5z
			 M127.232,0.5h-2.994V0h2.994V0.5z M121.245,0.5h-2.994V0h2.994V0.5z M115.257,0.5h-2.994V0h2.994V0.5z M109.27,0.5h-2.994V0
			h2.994V0.5z M103.283,0.5h-2.994V0h2.994V0.5z M97.295,0.5h-2.994V0h2.994V0.5z M91.309,0.5h-2.994V0h2.994V0.5z M85.321,0.5
			h-2.994V0h2.994V0.5z M79.334,0.5H76.34V0h2.994V0.5z M73.347,0.5h-2.994V0h2.994V0.5z M67.359,0.5h-2.994V0h2.994V0.5z
			 M61.372,0.5h-2.994V0h2.994V0.5z M55.385,0.5h-2.994V0h2.994V0.5z M49.398,0.5h-2.994V0h2.994V0.5z M43.411,0.5h-2.994V0h2.994
			V0.5z M37.423,0.5H34.43V0h2.994V0.5z M31.436,0.5h-2.994V0h2.994V0.5z M25.449,0.5h-2.994V0h2.994V0.5z M19.462,0.5h-2.994V0
			h2.994V0.5z M13.475,0.5h-2.994V0h2.994V0.5z M7.487,0.5H4.494V0h2.994V0.5z"/>
	</g>
	<g>
		<polygon fill="#FFFFFF" points="940.5,1 938.5,1 938.5,0.5 939.5,0.5 938.5,0.5 938.5,0 940.5,0 		"/>
	</g>
	<g>
		<path fill="#FFFFFF" d="M935.507,1h-2.993V0.5h2.993V1z M929.52,1h-2.993V0.5h2.993V1z M923.532,1h-2.993V0.5h2.993V1z M917.545,1
			h-2.993V0.5h2.993V1z M911.558,1h-2.993V0.5h2.993V1z M905.57,1h-2.993V0.5h2.993V1z M899.584,1h-2.994V0.5h2.994V1z M893.597,1
			h-2.994V0.5h2.994V1z M887.609,1h-2.994V0.5h2.994V1z M881.622,1h-2.994V0.5h2.994V1z M875.635,1h-2.994V0.5h2.994V1z M869.647,1
			h-2.993V0.5h2.993V1z M863.66,1h-2.993V0.5h2.993V1z M857.673,1h-2.993V0.5h2.993V1z M851.686,1h-2.993V0.5h2.993V1z M845.698,1
			h-2.993V0.5h2.993V1z M839.711,1h-2.993V0.5h2.993V1z M833.725,1h-2.994V0.5h2.994V1z M827.737,1h-2.994V0.5h2.994V1z M821.75,1
			h-2.994V0.5h2.994V1z M815.763,1h-2.994V0.5h2.994V1z M809.775,1h-2.994V0.5h2.994V1z M803.788,1h-2.994V0.5h2.994V1z M797.801,1
			h-2.993V0.5h2.993V1z M791.813,1h-2.993V0.5h2.993V1z M785.826,1h-2.993V0.5h2.993V1z M779.839,1h-2.993V0.5h2.993V1z M773.852,1
			h-2.993V0.5h2.993V1z M767.864,1h-2.993V0.5h2.993V1z M761.877,1h-2.993V0.5h2.993V1z M755.891,1h-2.994V0.5h2.994V1z M749.903,1
			h-2.994V0.5h2.994V1z M743.916,1h-2.994V0.5h2.994V1z M737.929,1h-2.994V0.5h2.994V1z M731.941,1h-2.994V0.5h2.994V1z M725.954,1
			h-2.994V0.5h2.994V1z M719.967,1h-2.994V0.5h2.994V1z M713.979,1h-2.993V0.5h2.993V1z M707.992,1h-2.993V0.5h2.993V1z M702.005,1
			h-2.993V0.5h2.993V1z M696.018,1h-2.993V0.5h2.993V1z M690.03,1h-2.993V0.5h2.993V1z M684.043,1h-2.993V0.5h2.993V1z M678.057,1
			h-2.994V0.5h2.994V1z M672.069,1h-2.994V0.5h2.994V1z M666.082,1h-2.994V0.5h2.994V1z M660.095,1h-2.994V0.5h2.994V1z M654.107,1
			h-2.994V0.5h2.994V1z M648.12,1h-2.994V0.5h2.994V1z M642.133,1h-2.994V0.5h2.994V1z M636.146,1h-2.993V0.5h2.993V1z M630.158,1
			h-2.993V0.5h2.993V1z M624.171,1h-2.993V0.5h2.993V1z M618.184,1h-2.993V0.5h2.993V1z M612.196,1h-2.993V0.5h2.993V1z M606.209,1
			h-2.993V0.5h2.993V1z M600.222,1h-2.993V0.5h2.993V1z M594.235,1h-2.994V0.5h2.994V1z M588.248,1h-2.994V0.5h2.994V1z M582.261,1
			h-2.994V0.5h2.994V1z M576.273,1h-2.994V0.5h2.994V1z M570.286,1h-2.994V0.5h2.994V1z M564.299,1h-2.994V0.5h2.994V1z M558.312,1
			h-2.993V0.5h2.993V1z M552.324,1h-2.993V0.5h2.993V1z M546.337,1h-2.993V0.5h2.993V1z M540.35,1h-2.993V0.5h2.993V1z M534.362,1
			h-2.993V0.5h2.993V1z M528.375,1h-2.993V0.5h2.993V1z M522.388,1h-2.993V0.5h2.993V1z M516.401,1h-2.994V0.5h2.994V1z M510.414,1
			h-2.994V0.5h2.994V1z M504.427,1h-2.994V0.5h2.994V1z M498.439,1h-2.994V0.5h2.994V1z M492.452,1h-2.994V0.5h2.994V1z M486.465,1
			h-2.994V0.5h2.994V1z M480.478,1h-2.993V0.5h2.993V1z M474.49,1h-2.993V0.5h2.993V1z M468.503,1h-2.994V0.5h2.994V1z M462.516,1
			h-2.994V0.5h2.994V1z M456.529,1h-2.994V0.5h2.994V1z M450.542,1h-2.994V0.5h2.994V1z M444.554,1h-2.994V0.5h2.994V1z M438.567,1
			h-2.994V0.5h2.994V1z M432.58,1h-2.994V0.5h2.994V1z M426.593,1h-2.994V0.5h2.994V1z M420.605,1h-2.993V0.5h2.993V1z M414.619,1
			h-2.994V0.5h2.994V1z M408.631,1h-2.994V0.5h2.994V1z M402.644,1h-2.994V0.5h2.994V1z M396.657,1h-2.994V0.5h2.994V1z M390.67,1
			h-2.994V0.5h2.994V1z M384.683,1h-2.994V0.5h2.994V1z M378.695,1h-2.994V0.5h2.994V1z M372.708,1h-2.993V0.5h2.993V1z M366.721,1
			h-2.994V0.5h2.994V1z M360.734,1h-2.994V0.5h2.994V1z M354.747,1h-2.994V0.5h2.994V1z M348.76,1h-2.994V0.5h2.994V1z M342.772,1
			h-2.994V0.5h2.994V1z M336.785,1h-2.994V0.5h2.994V1z M330.798,1h-2.993V0.5h2.993V1z M324.811,1h-2.994V0.5h2.994V1z M318.824,1
			h-2.994V0.5h2.994V1z M312.836,1h-2.994V0.5h2.994V1z M306.849,1h-2.993V0.5h2.993V1z M300.862,1h-2.994V0.5h2.994V1z M294.875,1
			h-2.994V0.5h2.994V1z M288.888,1h-2.994V0.5h2.994V1z M282.9,1h-2.993V0.5h2.993V1z M276.914,1h-2.994V0.5h2.994V1z M270.926,1
			h-2.994V0.5h2.994V1z M264.939,1h-2.994V0.5h2.994V1z M258.952,1h-2.994V0.5h2.994V1z M252.965,1h-2.994V0.5h2.994V1z M246.978,1
			h-2.994V0.5h2.994V1z M240.99,1h-2.993V0.5h2.993V1z M235.003,1h-2.994V0.5h2.994V1z M229.016,1h-2.994V0.5h2.994V1z M223.029,1
			h-2.994V0.5h2.994V1z M217.042,1h-2.994V0.5h2.994V1z M211.055,1h-2.994V0.5h2.994V1z M205.067,1h-2.994V0.5h2.994V1z M199.08,1
			h-2.994V0.5h2.994V1z M193.093,1H190.1V0.5h2.993V1z M187.106,1h-2.994V0.5h2.994V1z M181.119,1h-2.994V0.5h2.994V1z M175.131,1
			h-2.994V0.5h2.994V1z M169.145,1h-2.994V0.5h2.994V1z M163.157,1h-2.994V0.5h2.994V1z M157.17,1h-2.994V0.5h2.994V1z M151.183,1
			h-2.994V0.5h2.994V1z M145.196,1h-2.994V0.5h2.994V1z M139.208,1h-2.994V0.5h2.994V1z M133.221,1h-2.994V0.5h2.994V1z M127.234,1
			h-2.994V0.5h2.994V1z M121.247,1h-2.994V0.5h2.994V1z M115.26,1h-2.994V0.5h2.994V1z M109.272,1h-2.994V0.5h2.994V1z M103.285,1
			h-2.993V0.5h2.993V1z M97.298,1h-2.994V0.5h2.994V1z M91.311,1h-2.994V0.5h2.994V1z M85.324,1H82.33V0.5h2.994V1z M79.337,1
			h-2.994V0.5h2.994V1z M73.35,1h-2.994V0.5h2.994V1z M67.362,1h-2.994V0.5h2.994V1z M61.375,1h-2.994V0.5h2.994V1z M55.388,1
			h-2.993V0.5h2.993V1z M49.401,1h-2.994V0.5h2.994V1z M43.414,1H40.42V0.5h2.994V1z M37.426,1h-2.994V0.5h2.994V1z M31.439,1
			h-2.994V0.5h2.994V1z M25.452,1h-2.994V0.5h2.994V1z M19.465,1h-2.994V0.5h2.994V1z M13.478,1h-2.993V0.5h2.993V1z M7.491,1H4.497
			V0.5h2.994V1z"/>
	</g>
</g>
</svg>
